<mxfile host="app.diagrams.net" modified="2022-08-04T05:52:38.172Z" agent="5.0 (Windows)" etag="5pjPcMOXo3v0ZCOW6n-E" version="20.2.3" type="github">
  <diagram id="5o8exIMypR2gcvf9wQhV" name="Page-1">
    <mxGraphModel dx="1632" dy="420" grid="1" gridSize="10" guides="1" tooltips="1" connect="1" arrows="1" fold="1" page="1" pageScale="1" pageWidth="850" pageHeight="1100" math="0" shadow="0">
      <root>
        <mxCell id="0" />
        <mxCell id="1" parent="0" />
        <mxCell id="JzP6aEn9TVBlhUlEkKjw-45" value="AWS Cloud" style="points=[[0,0],[0.25,0],[0.5,0],[0.75,0],[1,0],[1,0.25],[1,0.5],[1,0.75],[1,1],[0.75,1],[0.5,1],[0.25,1],[0,1],[0,0.75],[0,0.5],[0,0.25]];outlineConnect=0;gradientColor=none;html=1;whiteSpace=wrap;fontSize=12;fontStyle=0;container=1;pointerEvents=0;collapsible=0;recursiveResize=0;shape=mxgraph.aws4.group;grIcon=mxgraph.aws4.group_aws_cloud_alt;strokeColor=#232F3E;fillColor=none;verticalAlign=top;align=left;spacingLeft=30;fontColor=#232F3E;dashed=0;" parent="1" vertex="1">
          <mxGeometry x="-170" y="80" width="390" height="438.75" as="geometry" />
        </mxCell>
        <mxCell id="JzP6aEn9TVBlhUlEkKjw-3" value="Amazon Pinpoint" style="sketch=0;outlineConnect=0;fontColor=#232F3E;gradientColor=#4A6BED;strokeColor=#ffffff;fillColor=#3538BD;dashed=0;verticalLabelPosition=middle;verticalAlign=bottom;align=center;html=1;whiteSpace=wrap;fontSize=10;fontStyle=1;spacing=3;shape=mxgraph.aws4.productIcon;prIcon=mxgraph.aws4.pinpoint;gradientDirection=east;" parent="JzP6aEn9TVBlhUlEkKjw-45" vertex="1">
          <mxGeometry x="60" y="50" width="80" height="110" as="geometry" />
        </mxCell>
        <mxCell id="JzP6aEn9TVBlhUlEkKjw-4" value="Amazon Connect" style="sketch=0;outlineConnect=0;fontColor=default;gradientColor=#3435BA;strokeColor=#FFFFFF;fillColor=#4C73F5;dashed=0;verticalLabelPosition=middle;verticalAlign=bottom;align=center;html=1;whiteSpace=wrap;fontSize=10;fontStyle=1;spacing=3;shape=mxgraph.aws4.productIcon;prIcon=mxgraph.aws4.connect;gradientDirection=west;labelBackgroundColor=default;" parent="JzP6aEn9TVBlhUlEkKjw-45" vertex="1">
          <mxGeometry x="230" y="160" width="80" height="110" as="geometry" />
        </mxCell>
        <mxCell id="JzP6aEn9TVBlhUlEkKjw-6" value="Amazon Lex" style="sketch=0;outlineConnect=0;fontColor=#232F3E;gradientColor=#4AB199;strokeColor=#ffffff;fillColor=#1A7965;dashed=0;verticalLabelPosition=middle;verticalAlign=bottom;align=center;html=1;whiteSpace=wrap;fontSize=10;fontStyle=1;spacing=3;shape=mxgraph.aws4.productIcon;prIcon=mxgraph.aws4.lex;gradientDirection=east;" parent="JzP6aEn9TVBlhUlEkKjw-45" vertex="1">
          <mxGeometry x="230" y="310" width="80" height="100" as="geometry" />
        </mxCell>
        <mxCell id="JzP6aEn9TVBlhUlEkKjw-11" value="Amazon Amplify" style="text;html=1;strokeColor=none;fillColor=default;align=center;verticalAlign=middle;whiteSpace=wrap;rounded=0;labelBackgroundColor=default;fontStyle=1" parent="JzP6aEn9TVBlhUlEkKjw-45" vertex="1">
          <mxGeometry x="69" y="388" width="60" height="30" as="geometry" />
        </mxCell>
        <mxCell id="JzP6aEn9TVBlhUlEkKjw-17" style="edgeStyle=orthogonalEdgeStyle;rounded=0;orthogonalLoop=1;jettySize=auto;html=1;exitX=0.5;exitY=1;exitDx=0;exitDy=0;" parent="JzP6aEn9TVBlhUlEkKjw-45" source="JzP6aEn9TVBlhUlEkKjw-11" target="JzP6aEn9TVBlhUlEkKjw-11" edge="1">
          <mxGeometry relative="1" as="geometry" />
        </mxCell>
        <mxCell id="JzP6aEn9TVBlhUlEkKjw-10" value="" style="sketch=0;points=[[0,0,0],[0.25,0,0],[0.5,0,0],[0.75,0,0],[1,0,0],[0,1,0],[0.25,1,0],[0.5,1,0],[0.75,1,0],[1,1,0],[0,0.25,0],[0,0.5,0],[0,0.75,0],[1,0.25,0],[1,0.5,0],[1,0.75,0]];outlineConnect=0;fontColor=#232F3E;gradientColor=#CD1924;gradientDirection=west;fillColor=#F24446;strokeColor=#ffffff;dashed=0;verticalLabelPosition=bottom;verticalAlign=top;align=center;html=1;fontSize=12;fontStyle=0;aspect=fixed;shape=mxgraph.aws4.resourceIcon;resIcon=mxgraph.aws4.amplify;" parent="JzP6aEn9TVBlhUlEkKjw-45" vertex="1">
          <mxGeometry x="60" y="310" width="78" height="78" as="geometry" />
        </mxCell>
        <mxCell id="JzP6aEn9TVBlhUlEkKjw-112" value="" style="endArrow=classic;startArrow=classic;html=1;rounded=0;fontColor=#232F3E;" parent="JzP6aEn9TVBlhUlEkKjw-45" source="JzP6aEn9TVBlhUlEkKjw-4" target="JzP6aEn9TVBlhUlEkKjw-6" edge="1">
          <mxGeometry width="50" height="50" relative="1" as="geometry">
            <mxPoint x="279.58000000000004" y="361" as="sourcePoint" />
            <mxPoint x="279.58000000000004" y="391" as="targetPoint" />
            <Array as="points" />
          </mxGeometry>
        </mxCell>
        <mxCell id="JzP6aEn9TVBlhUlEkKjw-96" value="" style="endArrow=classic;startArrow=classic;html=1;rounded=0;fontColor=#232F3E;exitX=1;exitY=0.5;exitDx=0;exitDy=0;exitPerimeter=0;" parent="JzP6aEn9TVBlhUlEkKjw-45" source="JzP6aEn9TVBlhUlEkKjw-10" edge="1">
          <mxGeometry width="50" height="50" relative="1" as="geometry">
            <mxPoint x="199" y="438.58000000000004" as="sourcePoint" />
            <mxPoint x="230" y="349" as="targetPoint" />
          </mxGeometry>
        </mxCell>
        <mxCell id="JzP6aEn9TVBlhUlEkKjw-124" style="edgeStyle=orthogonalEdgeStyle;rounded=0;orthogonalLoop=1;jettySize=auto;html=1;fontColor=#232F3E;" parent="1" target="JzP6aEn9TVBlhUlEkKjw-37" edge="1">
          <mxGeometry relative="1" as="geometry">
            <mxPoint x="-440" y="340" as="sourcePoint" />
            <Array as="points">
              <mxPoint x="-440" y="430" />
            </Array>
          </mxGeometry>
        </mxCell>
        <mxCell id="JzP6aEn9TVBlhUlEkKjw-44" value="Email" style="sketch=0;outlineConnect=0;fontColor=#232F3E;gradientColor=none;strokeColor=#232F3E;fillColor=#ffffff;dashed=0;verticalLabelPosition=bottom;verticalAlign=top;align=center;html=1;fontSize=12;fontStyle=1;aspect=fixed;shape=mxgraph.aws4.resourceIcon;resIcon=mxgraph.aws4.email;" parent="1" vertex="1">
          <mxGeometry x="-470" y="250" width="60" height="60" as="geometry" />
        </mxCell>
        <mxCell id="JzP6aEn9TVBlhUlEkKjw-116" style="edgeStyle=orthogonalEdgeStyle;rounded=0;orthogonalLoop=1;jettySize=auto;html=1;fontColor=#232F3E;" parent="1" target="JzP6aEn9TVBlhUlEkKjw-98" edge="1">
          <mxGeometry relative="1" as="geometry">
            <mxPoint x="-352" y="220" as="sourcePoint" />
            <Array as="points">
              <mxPoint x="-352" y="230" />
              <mxPoint x="-270" y="230" />
            </Array>
          </mxGeometry>
        </mxCell>
        <mxCell id="JzP6aEn9TVBlhUlEkKjw-117" style="edgeStyle=orthogonalEdgeStyle;rounded=0;orthogonalLoop=1;jettySize=auto;html=1;entryX=0.5;entryY=0.167;entryDx=0;entryDy=0;entryPerimeter=0;fontColor=#232F3E;" parent="1" target="JzP6aEn9TVBlhUlEkKjw-44" edge="1">
          <mxGeometry relative="1" as="geometry">
            <mxPoint x="-352" y="220" as="sourcePoint" />
            <Array as="points">
              <mxPoint x="-352" y="230" />
              <mxPoint x="-440" y="230" />
            </Array>
          </mxGeometry>
        </mxCell>
        <mxCell id="JzP6aEn9TVBlhUlEkKjw-39" value="users" style="sketch=0;outlineConnect=0;gradientColor=none;fontColor=#232F3E;strokeColor=none;fillColor=#232F3E;dashed=0;verticalLabelPosition=bottom;verticalAlign=top;align=center;html=1;fontSize=12;fontStyle=1;aspect=fixed;shape=mxgraph.aws4.illustration_users;pointerEvents=1" parent="1" vertex="1">
          <mxGeometry x="-390" y="130" width="70" height="70" as="geometry" />
        </mxCell>
        <mxCell id="JzP6aEn9TVBlhUlEkKjw-125" style="edgeStyle=orthogonalEdgeStyle;rounded=0;orthogonalLoop=1;jettySize=auto;html=1;entryX=0;entryY=0.5;entryDx=0;entryDy=0;entryPerimeter=0;fontColor=#232F3E;" parent="1" source="JzP6aEn9TVBlhUlEkKjw-37" target="JzP6aEn9TVBlhUlEkKjw-10" edge="1">
          <mxGeometry relative="1" as="geometry">
            <Array as="points">
              <mxPoint x="-190" y="429" />
              <mxPoint x="-190" y="429" />
            </Array>
          </mxGeometry>
        </mxCell>
        <mxCell id="JzP6aEn9TVBlhUlEkKjw-37" value="Client" style="sketch=0;outlineConnect=0;fontColor=#232F3E;gradientColor=none;strokeColor=#232F3E;fillColor=#ffffff;dashed=0;verticalLabelPosition=bottom;verticalAlign=top;align=center;html=1;fontSize=12;fontStyle=1;aspect=fixed;shape=mxgraph.aws4.resourceIcon;resIcon=mxgraph.aws4.client;" parent="1" vertex="1">
          <mxGeometry x="-310" y="390" width="80" height="80" as="geometry" />
        </mxCell>
        <mxCell id="JzP6aEn9TVBlhUlEkKjw-85" value="" style="sketch=0;outlineConnect=0;fontColor=#232F3E;gradientColor=none;fillColor=#232F3D;strokeColor=none;dashed=0;verticalLabelPosition=bottom;verticalAlign=top;align=center;html=1;fontSize=12;fontStyle=0;aspect=fixed;pointerEvents=1;shape=mxgraph.aws4.users;labelBackgroundColor=default;" parent="1" vertex="1">
          <mxGeometry x="270" y="240" width="78" height="78" as="geometry" />
        </mxCell>
        <mxCell id="JzP6aEn9TVBlhUlEkKjw-86" value="Contact center agents" style="text;html=1;strokeColor=none;fillColor=none;align=center;verticalAlign=middle;whiteSpace=wrap;rounded=0;labelBackgroundColor=default;fontColor=#232F3E;fontStyle=1" parent="1" vertex="1">
          <mxGeometry x="268.5" y="322" width="81" height="30" as="geometry" />
        </mxCell>
        <mxCell id="JzP6aEn9TVBlhUlEkKjw-106" style="edgeStyle=orthogonalEdgeStyle;rounded=0;orthogonalLoop=1;jettySize=auto;html=1;fontColor=#232F3E;" parent="1" source="JzP6aEn9TVBlhUlEkKjw-98" target="JzP6aEn9TVBlhUlEkKjw-4" edge="1">
          <mxGeometry relative="1" as="geometry">
            <Array as="points">
              <mxPoint x="-269" y="280" />
            </Array>
          </mxGeometry>
        </mxCell>
        <mxCell id="JzP6aEn9TVBlhUlEkKjw-98" value="" style="sketch=0;pointerEvents=1;shadow=0;dashed=0;html=1;strokeColor=none;fillColor=#434445;aspect=fixed;labelPosition=center;verticalLabelPosition=bottom;verticalAlign=top;align=center;outlineConnect=0;shape=mxgraph.vvd.phone;labelBackgroundColor=default;fontColor=#232F3E;" parent="1" vertex="1">
          <mxGeometry x="-288.28999999999996" y="260" width="36.58" height="62" as="geometry" />
        </mxCell>
        <mxCell id="JzP6aEn9TVBlhUlEkKjw-115" style="edgeStyle=orthogonalEdgeStyle;rounded=0;orthogonalLoop=1;jettySize=auto;html=1;fontColor=#232F3E;" parent="1" source="JzP6aEn9TVBlhUlEkKjw-99" target="JzP6aEn9TVBlhUlEkKjw-37" edge="1">
          <mxGeometry relative="1" as="geometry" />
        </mxCell>
        <mxCell id="JzP6aEn9TVBlhUlEkKjw-99" value="SMS" style="text;html=1;strokeColor=none;fillColor=none;align=center;verticalAlign=middle;whiteSpace=wrap;rounded=0;labelBackgroundColor=default;fontColor=#232F3E;fontStyle=1" parent="1" vertex="1">
          <mxGeometry x="-300" y="322" width="60" height="30" as="geometry" />
        </mxCell>
        <mxCell id="JzP6aEn9TVBlhUlEkKjw-111" style="edgeStyle=orthogonalEdgeStyle;rounded=0;orthogonalLoop=1;jettySize=auto;html=1;exitX=0.5;exitY=1;exitDx=0;exitDy=0;fontColor=#232F3E;" parent="1" source="JzP6aEn9TVBlhUlEkKjw-86" target="JzP6aEn9TVBlhUlEkKjw-86" edge="1">
          <mxGeometry relative="1" as="geometry" />
        </mxCell>
        <mxCell id="JzP6aEn9TVBlhUlEkKjw-114" style="edgeStyle=orthogonalEdgeStyle;rounded=0;orthogonalLoop=1;jettySize=auto;html=1;fontColor=#232F3E;" parent="1" source="JzP6aEn9TVBlhUlEkKjw-4" target="JzP6aEn9TVBlhUlEkKjw-85" edge="1">
          <mxGeometry relative="1" as="geometry">
            <Array as="points">
              <mxPoint x="180" y="290" />
              <mxPoint x="180" y="290" />
            </Array>
          </mxGeometry>
        </mxCell>
        <mxCell id="JzP6aEn9TVBlhUlEkKjw-128" style="edgeStyle=orthogonalEdgeStyle;rounded=0;orthogonalLoop=1;jettySize=auto;html=1;entryX=1.001;entryY=0.786;entryDx=0;entryDy=0;entryPerimeter=0;fontColor=#232F3E;" parent="1" source="JzP6aEn9TVBlhUlEkKjw-3" target="JzP6aEn9TVBlhUlEkKjw-39" edge="1">
          <mxGeometry relative="1" as="geometry" />
        </mxCell>
      </root>
    </mxGraphModel>
  </diagram>
</mxfile>
